<?xml version="1.0" encoding="utf-8"?>
<!-- Generator: Adobe Illustrator 22.0.1, SVG Export Plug-In . SVG Version: 6.00 Build 0)  -->
<svg version="1.1" id="Layer_1" xmlns="http://www.w3.org/2000/svg" xmlns:xlink="http://www.w3.org/1999/xlink" x="0px" y="0px"
	 viewBox="0 0 100 94.7" style="enable-background:new 0 0 100 94.7;" xml:space="preserve">
<style type="text/css">
	.st0{fill:#FFFFFF;}
</style>
<path class="st0" d="M53.3,28.4l10.8,11.1L15.7,93.1c-2.1,2.3-5.9,2.3-8.1,0l-5.9-6c-2.3-2.1-2.3-5.9,0-8.1L53.3,28.4z"/>
<path class="st0" d="M98.8,39.8l-8.1,8.3c-1.7,1.7-4.2,1.7-6,0l-1.8-2c-1.4-1.2-2-3.5-1.2-4.5c1.3-0.9,0.9-3.6-1.7-6
	c-3.6-3.8-8.3-3.9-10.1-2c-0.8,0.6-3.2,3.2-3.2,3.2l-11.1-11l1.8-1.8c0,0,0.4-0.5,1.4-1.5c3.5-3.5-0.2-7.4-0.2-7.4
	c-9.8-9.6-23.5-9.5-23.5-9.5L35,2.2c27.5-7.1,37.9,5,41.7,8.7c3.5,3.5,7.1,7.1,8,8c2,2,0,7.5,2.9,10.7c1.4,1.4,3.2,2,4.5,2
	c1.5-1.4,3.9-0.9,5.1,0.5l1.7,1.8C100.4,35.4,100.4,38,98.8,39.8z"/>
</svg>
